{
    "asset" : {
        "generator" : "Khronos glTF Blender I/O v3.2.40",
        "version" : "2.0"
    },
    "scene" : 0,
    "scenes" : [
        {
            "name" : "Scene",
            "nodes" : [
                0,
                1
            ]
        }
    ],
    "nodes" : [
        {
            "mesh" : 0,
            "name" : "Island"
        },
        {
            "mesh" : 1,
            "name" : "Island Grass"
        }
    ],
    "materials" : [
        {
            "doubleSided" : true,
            "name" : "Material.001",
            "pbrMetallicRoughness" : {
                "baseColorFactor" : [
                    0.2972911298274994,
                    0.14640846848487854,
                    0.06391920149326324,
                    1
                ],
                "metallicFactor" : 0,
                "roughnessFactor" : 0.5
            }
        },
        {
            "doubleSided" : true,
            "name" : "Material.002",
            "pbrMetallicRoughness" : {
                "baseColorFactor" : [
                    0.0632394477725029,
                    0.30120933055877686,
                    0.058129459619522095,
                    1
                ],
                "metallicFactor" : 0,
                "roughnessFactor" : 0.5
            }
        }
    ],
    "meshes" : [
        {
            "name" : "Cylinder.003",
            "primitives" : [
                {
                    "attributes" : {
                        "POSITION" : 0,
                        "NORMAL" : 1,
                        "TEXCOORD_0" : 2
                    },
                    "indices" : 3,
                    "material" : 0
                }
            ]
        },
        {
            "name" : "Cylinder.004",
            "primitives" : [
                {
                    "attributes" : {
                        "POSITION" : 4,
                        "NORMAL" : 5,
                        "TEXCOORD_0" : 6
                    },
                    "indices" : 7,
                    "material" : 1
                }
            ]
        }
    ],
    "accessors" : [
        {
            "bufferView" : 0,
            "componentType" : 5126,
            "count" : 454,
            "max" : [
                2.588926315307617,
                2.661289691925049,
                3.370637893676758
            ],
            "min" : [
                -2.8304266929626465,
                -1,
                -2.6788811683654785
            ],
            "type" : "VEC3"
        },
        {
            "bufferView" : 1,
            "componentType" : 5126,
            "count" : 454,
            "type" : "VEC3"
        },
        {
            "bufferView" : 2,
            "componentType" : 5126,
            "count" : 454,
            "type" : "VEC2"
        },
        {
            "bufferView" : 3,
            "componentType" : 5123,
            "count" : 660,
            "type" : "SCALAR"
        },
        {
            "bufferView" : 4,
            "componentType" : 5126,
            "count" : 100,
            "max" : [
                2.8237855434417725,
                2.8971569538116455,
                3.604763984680176
            ],
            "min" : [
                -3.0700557231903076,
                2.491481065750122,
                -2.91351580619812
            ],
            "type" : "VEC3"
        },
        {
            "bufferView" : 5,
            "componentType" : 5126,
            "count" : 100,
            "type" : "VEC3"
        },
        {
            "bufferView" : 6,
            "componentType" : 5126,
            "count" : 100,
            "type" : "VEC2"
        },
        {
            "bufferView" : 7,
            "componentType" : 5123,
            "count" : 174,
            "type" : "SCALAR"
        }
    ],
    "bufferViews" : [
        {
            "buffer" : 0,
            "byteLength" : 5448,
            "byteOffset" : 0
        },
        {
            "buffer" : 0,
            "byteLength" : 5448,
            "byteOffset" : 5448
        },
        {
            "buffer" : 0,
            "byteLength" : 3632,
            "byteOffset" : 10896
        },
        {
            "buffer" : 0,
            "byteLength" : 1320,
            "byteOffset" : 14528
        },
        {
            "buffer" : 0,
            "byteLength" : 1200,
            "byteOffset" : 15848
        },
        {
            "buffer" : 0,
            "byteLength" : 1200,
            "byteOffset" : 17048
        },
        {
            "buffer" : 0,
            "byteLength" : 800,
            "byteOffset" : 18248
        },
        {
            "buffer" : 0,
            "byteLength" : 348,
            "byteOffset" : 19048
        }
    ],
    "buffers" : [
        {
            "byteLength" : 19396,
            "uri" : "data:application/octet-stream;base64,"
        }
    ]
}
