{
    "asset" : {
        "generator" : "Khronos glTF Blender I/O v3.2.40",
        "version" : "2.0"
    },
    "scene" : 0,
    "scenes" : [
        {
            "name" : "Scene",
            "nodes" : [
                0
            ]
        }
    ],
    "nodes" : [
        {
            "mesh" : 0,
            "name" : "Tree-01-3",
            "translation" : [
                9.629548072814941,
                0,
                15.879158020019531
            ]
        }
    ],
    "materials" : [
        {
            "doubleSided" : true,
            "name" : "trunk-01",
            "pbrMetallicRoughness" : {
                "baseColorTexture" : {
                    "index" : 0
                },
                "metallicFactor" : 0,
                "roughnessFactor" : 0.3431818187236786
            }
        },
        {
            "alphaMode" : "BLEND",
            "doubleSided" : true,
            "name" : "branch-1-02",
            "pbrMetallicRoughness" : {
                "baseColorTexture" : {
                    "index" : 1
                },
                "metallicFactor" : 0,
                "roughnessFactor" : 0.5
            }
        },
        {
            "alphaMode" : "BLEND",
            "doubleSided" : true,
            "name" : "branch-1-01",
            "pbrMetallicRoughness" : {
                "baseColorTexture" : {
                    "index" : 2
                },
                "metallicFactor" : 0,
                "roughnessFactor" : 0.5
            }
        }
    ],
    "meshes" : [
        {
            "name" : "BezierCurve.038",
            "primitives" : [
                {
                    "attributes" : {
                        "POSITION" : 0,
                        "NORMAL" : 1,
                        "TEXCOORD_0" : 2
                    },
                    "indices" : 3,
                    "material" : 0
                },
                {
                    "attributes" : {
                        "POSITION" : 4,
                        "NORMAL" : 5,
                        "TEXCOORD_0" : 6
                    },
                    "indices" : 7,
                    "material" : 1
                },
                {
                    "attributes" : {
                        "POSITION" : 8,
                        "NORMAL" : 9,
                        "TEXCOORD_0" : 10
                    },
                    "indices" : 11,
                    "material" : 2
                }
            ]
        }
    ],
    "textures" : [
        {
            "sampler" : 0,
            "source" : 0
        },
        {
            "sampler" : 0,
            "source" : 1
        },
        {
            "sampler" : 0,
            "source" : 2
        }
    ],
    "images" : [
        {
            "bufferView" : 4,
            "mimeType" : "image/jpeg",
            "name" : "bark"
        },
        {
            "bufferView" : 9,
            "mimeType" : "image/png",
            "name" : "branch-02"
        },
        {
            "bufferView" : 14,
            "mimeType" : "image/png",
            "name" : "branch-01"
        }
    ],
    "accessors" : [
        {
            "bufferView" : 0,
            "componentType" : 5126,
            "count" : 177,
            "max" : [
                0.6632061004638672,
                6.617419242858887,
                0.9703273773193359
            ],
            "min" : [
                -0.15199661254882812,
                -0.0067291259765625,
                -0.15307044982910156
            ],
            "type" : "VEC3"
        },
        {
            "bufferView" : 1,
            "componentType" : 5126,
            "count" : 177,
            "type" : "VEC3"
        },
        {
            "bufferView" : 2,
            "componentType" : 5126,
            "count" : 177,
            "type" : "VEC2"
        },
        {
            "bufferView" : 3,
            "componentType" : 5123,
            "count" : 396,
            "type" : "SCALAR"
        },
        {
            "bufferView" : 5,
            "componentType" : 5126,
            "count" : 203,
            "max" : [
                3.752124786376953,
                7.342604637145996,
                2.573232650756836
            ],
            "min" : [
                -2.5328426361083984,
                0.4590144157409668,
                -3.118410110473633
            ],
            "type" : "VEC3"
        },
        {
            "bufferView" : 6,
            "componentType" : 5126,
            "count" : 203,
            "type" : "VEC3"
        },
        {
            "bufferView" : 7,
            "componentType" : 5126,
            "count" : 203,
            "type" : "VEC2"
        },
        {
            "bufferView" : 8,
            "componentType" : 5123,
            "count" : 480,
            "type" : "SCALAR"
        },
        {
            "bufferView" : 10,
            "componentType" : 5126,
            "count" : 146,
            "max" : [
                3.4567337036132812,
                7.503784656524658,
                2.983440399169922
            ],
            "min" : [
                -3.518366813659668,
                1.2224225997924805,
                -3.2257871627807617
            ],
            "type" : "VEC3"
        },
        {
            "bufferView" : 11,
            "componentType" : 5126,
            "count" : 146,
            "type" : "VEC3"
        },
        {
            "bufferView" : 12,
            "componentType" : 5126,
            "count" : 146,
            "type" : "VEC2"
        },
        {
            "bufferView" : 13,
            "componentType" : 5123,
            "count" : 360,
            "type" : "SCALAR"
        }
    ],
    "bufferViews" : [
        {
            "buffer" : 0,
            "byteLength" : 2124,
            "byteOffset" : 0
        },
        {
            "buffer" : 0,
            "byteLength" : 2124,
            "byteOffset" : 2124
        },
        {
            "buffer" : 0,
            "byteLength" : 1416,
            "byteOffset" : 4248
        },
        {
            "buffer" : 0,
            "byteLength" : 792,
            "byteOffset" : 5664
        },
        {
            "buffer" : 0,
            "byteLength" : 232440,
            "byteOffset" : 6456
        },
        {
            "buffer" : 0,
            "byteLength" : 2436,
            "byteOffset" : 238896
        },
        {
            "buffer" : 0,
            "byteLength" : 2436,
            "byteOffset" : 241332
        },
        {
            "buffer" : 0,
            "byteLength" : 1624,
            "byteOffset" : 243768
        },
        {
            "buffer" : 0,
            "byteLength" : 960,
            "byteOffset" : 245392
        },
        {
            "buffer" : 0,
            "byteLength" : 771356,
            "byteOffset" : 246352
        },
        {
            "buffer" : 0,
            "byteLength" : 1752,
            "byteOffset" : 1017708
        },
        {
            "buffer" : 0,
            "byteLength" : 1752,
            "byteOffset" : 1019460
        },
        {
            "buffer" : 0,
            "byteLength" : 1168,
            "byteOffset" : 1021212
        },
        {
            "buffer" : 0,
            "byteLength" : 720,
            "byteOffset" : 1022380
        },
        {
            "buffer" : 0,
            "byteLength" : 526336,
            "byteOffset" : 1023100
        }
    ],
    "samplers" : [
        {
            "magFilter" : 9729,
            "minFilter" : 9987
        }
    ],
    "buffers" : [
        {
            "byteLength" : 1549436,
            "uri" : "data:application/octet-stream;base64,"
        }
    ]
}
