{
    "asset" : {
        "generator" : "Khronos glTF Blender I/O v3.2.40",
        "version" : "2.0"
    },
    "scene" : 0,
    "scenes" : [
        {
            "name" : "Scene",
            "nodes" : [
                0
            ]
        }
    ],
    "nodes" : [
        {
            "mesh" : 0,
            "name" : "Tree-01-2"
        }
    ],
    "materials" : [
        {
            "doubleSided" : true,
            "name" : "trunk-01",
            "pbrMetallicRoughness" : {
                "baseColorTexture" : {
                    "index" : 0
                },
                "metallicFactor" : 0,
                "roughnessFactor" : 0.3431818187236786
            }
        },
        {
            "alphaMode" : "BLEND",
            "doubleSided" : true,
            "name" : "branch-1-01",
            "pbrMetallicRoughness" : {
                "baseColorTexture" : {
                    "index" : 1
                },
                "metallicFactor" : 0,
                "roughnessFactor" : 0.5
            }
        },
        {
            "alphaMode" : "BLEND",
            "doubleSided" : true,
            "name" : "branch-1-02",
            "pbrMetallicRoughness" : {
                "baseColorTexture" : {
                    "index" : 2
                },
                "metallicFactor" : 0,
                "roughnessFactor" : 0.5
            }
        }
    ],
    "meshes" : [
        {
            "name" : "BezierCurve.036",
            "primitives" : [
                {
                    "attributes" : {
                        "POSITION" : 0,
                        "NORMAL" : 1,
                        "TEXCOORD_0" : 2
                    },
                    "indices" : 3,
                    "material" : 0
                },
                {
                    "attributes" : {
                        "POSITION" : 4,
                        "NORMAL" : 5,
                        "TEXCOORD_0" : 6
                    },
                    "indices" : 7,
                    "material" : 1
                },
                {
                    "attributes" : {
                        "POSITION" : 8,
                        "NORMAL" : 9,
                        "TEXCOORD_0" : 10
                    },
                    "indices" : 11,
                    "material" : 2
                }
            ]
        }
    ],
    "textures" : [
        {
            "sampler" : 0,
            "source" : 0
        },
        {
            "sampler" : 0,
            "source" : 1
        },
        {
            "sampler" : 0,
            "source" : 2
        }
    ],
    "images" : [
        {
            "bufferView" : 4,
            "mimeType" : "image/jpeg",
            "name" : "bark"
        },
        {
            "bufferView" : 9,
            "mimeType" : "image/png",
            "name" : "branch-01"
        },
        {
            "bufferView" : 14,
            "mimeType" : "image/png",
            "name" : "branch-02"
        }
    ],
    "accessors" : [
        {
            "bufferView" : 0,
            "componentType" : 5126,
            "count" : 293,
            "max" : [
                0.4250040054321289,
                6.621478080749512,
                1.2354316711425781
            ],
            "min" : [
                -0.8334903717041016,
                0,
                -0.6084156036376953
            ],
            "type" : "VEC3"
        },
        {
            "bufferView" : 1,
            "componentType" : 5126,
            "count" : 293,
            "type" : "VEC3"
        },
        {
            "bufferView" : 2,
            "componentType" : 5126,
            "count" : 293,
            "type" : "VEC2"
        },
        {
            "bufferView" : 3,
            "componentType" : 5123,
            "count" : 666,
            "type" : "SCALAR"
        },
        {
            "bufferView" : 5,
            "componentType" : 5126,
            "count" : 228,
            "max" : [
                3.0291919708251953,
                7.500932693481445,
                3.801664352416992
            ],
            "min" : [
                -3.3098506927490234,
                1.1391396522521973,
                -3.514754295349121
            ],
            "type" : "VEC3"
        },
        {
            "bufferView" : 6,
            "componentType" : 5126,
            "count" : 228,
            "type" : "VEC3"
        },
        {
            "bufferView" : 7,
            "componentType" : 5126,
            "count" : 228,
            "type" : "VEC2"
        },
        {
            "bufferView" : 8,
            "componentType" : 5123,
            "count" : 552,
            "type" : "SCALAR"
        },
        {
            "bufferView" : 10,
            "componentType" : 5126,
            "count" : 306,
            "max" : [
                3.2405309677124023,
                7.38088321685791,
                3.03533935546875
            ],
            "min" : [
                -3.1619067192077637,
                0.31810951232910156,
                -3.4047069549560547
            ],
            "type" : "VEC3"
        },
        {
            "bufferView" : 11,
            "componentType" : 5126,
            "count" : 306,
            "type" : "VEC3"
        },
        {
            "bufferView" : 12,
            "componentType" : 5126,
            "count" : 306,
            "type" : "VEC2"
        },
        {
            "bufferView" : 13,
            "componentType" : 5123,
            "count" : 720,
            "type" : "SCALAR"
        }
    ],
    "bufferViews" : [
        {
            "buffer" : 0,
            "byteLength" : 3516,
            "byteOffset" : 0
        },
        {
            "buffer" : 0,
            "byteLength" : 3516,
            "byteOffset" : 3516
        },
        {
            "buffer" : 0,
            "byteLength" : 2344,
            "byteOffset" : 7032
        },
        {
            "buffer" : 0,
            "byteLength" : 1332,
            "byteOffset" : 9376
        },
        {
            "buffer" : 0,
            "byteLength" : 232440,
            "byteOffset" : 10708
        },
        {
            "buffer" : 0,
            "byteLength" : 2736,
            "byteOffset" : 243148
        },
        {
            "buffer" : 0,
            "byteLength" : 2736,
            "byteOffset" : 245884
        },
        {
            "buffer" : 0,
            "byteLength" : 1824,
            "byteOffset" : 248620
        },
        {
            "buffer" : 0,
            "byteLength" : 1104,
            "byteOffset" : 250444
        },
        {
            "buffer" : 0,
            "byteLength" : 526336,
            "byteOffset" : 251548
        },
        {
            "buffer" : 0,
            "byteLength" : 3672,
            "byteOffset" : 777884
        },
        {
            "buffer" : 0,
            "byteLength" : 3672,
            "byteOffset" : 781556
        },
        {
            "buffer" : 0,
            "byteLength" : 2448,
            "byteOffset" : 785228
        },
        {
            "buffer" : 0,
            "byteLength" : 1440,
            "byteOffset" : 787676
        },
        {
            "buffer" : 0,
            "byteLength" : 771356,
            "byteOffset" : 789116
        }
    ],
    "samplers" : [
        {
            "magFilter" : 9729,
            "minFilter" : 9987
        }
    ],
    "buffers" : [
        {
            "byteLength" : 1560472,
            "uri" : "data:application/octet-stream;base64,"
        }
    ]
}
